<svg xmlns="http://www.w3.org/2000/svg" viewBox="0 0 420 180" role="img" aria-labelledby="title desc"><title id="title">Xan Atlas Restaurant</title><desc id="desc">Gold ornamental Xan Atlas restaurant logo</desc><g fill="none" stroke="#c7a56a" stroke-width="2.2" stroke-linecap="round" stroke-linejoin="round"><path d="M210 12c-20 0-36 16-36 36 0 18 13 33 30 36v18h12V84c17-3 30-18 30-36 0-20-16-36-36-36Z"/><path d="M188 48h44M210 25v46M194 32l32 32M226 32l-32 32"/><path d="M158 77c17-11 34-16 52-16s35 5 52 16M171 94h78"/><path d="M140 96c22 4 45 6 70 6s48-2 70-6"/><path d="M152 108c19 7 38 10 58 10s39-3 58-10"/></g><text x="210" y="147" text-anchor="middle" fill="#c7a56a" font-family="Georgia,serif" font-size="40" letter-spacing="8">XAN ATLAS</text><text x="210" y="170" text-anchor="middle" fill="#c7a56a" font-family="Arial,sans-serif" font-size="11" letter-spacing="7">RESTAURANT</text></svg>