<?xml version="1.0" standalone="no"?>
<!DOCTYPE svg PUBLIC "-//W3C//DTD SVG 20010904//EN"
 "http://www.w3.org/TR/2001/REC-SVG-20010904/DTD/svg10.dtd">
<svg version="1.0" xmlns="http://www.w3.org/2000/svg"
 width="1536.000000pt" height="1024.000000pt" viewBox="0 0 1536.000000 1024.000000"
 preserveAspectRatio="xMidYMid meet">

<g transform="translate(0.000000,1024.000000) scale(0.100000,-0.100000)"
fill="#000000" stroke="none">
<path d="M7025 8585 l-638 -645 -803 0 -804 0 0 -127 c0 -71 -3 -441 -6 -823
l-7 -695 -590 -586 -591 -585 284 -279 c157 -154 430 -423 608 -600 l324 -320
-4 -720 -3 -720 784 -3 785 -2 370 -368 c204 -202 498 -492 652 -646 155 -153
287 -277 293 -275 5 2 275 265 598 584 323 319 618 608 654 643 l66 62 779 2
779 3 5 715 5 715 200 196 c110 107 340 332 510 500 171 167 356 349 413 405
l104 100 -611 604 -611 603 0 809 0 808 -792 0 c-690 1 -796 3 -813 16 -11 8
-304 298 -650 644 -347 347 -636 630 -641 630 -6 0 -298 -290 -649 -645z
m1293 -65 l647 -640 773 0 772 0 0 -787 0 -788 112 -110 c62 -60 333 -328 602
-594 l489 -485 -29 -24 c-16 -14 -274 -267 -574 -562 -300 -295 -560 -550
-577 -565 l-33 -27 0 -699 0 -699 -767 0 -767 0 -316 -312 c-173 -172 -462
-459 -641 -637 -180 -178 -331 -322 -337 -320 -6 2 -298 289 -650 636 l-640
633 -764 0 -764 0 4 703 4 702 -354 351 c-194 192 -462 456 -595 586 -134 130
-243 239 -243 241 0 3 261 265 580 583 l580 577 0 647 c0 356 3 715 7 798 l6
152 776 0 777 0 629 630 c347 347 632 635 633 640 2 6 6 10 9 10 2 0 296 -288
651 -640z"/>
<path d="M7066 8376 l-608 -616 -744 0 -744 0 0 -757 0 -758 -561 -561 -560
-560 568 -564 568 -563 5 -669 5 -668 725 0 725 -1 435 -431 c239 -237 517
-512 617 -612 l182 -180 468 465 c257 255 536 530 618 611 l150 147 728 0 728
0 -1 663 0 663 233 225 c127 123 389 378 580 566 317 310 348 343 336 360 -7
11 -264 267 -571 569 l-558 550 0 753 0 752 -737 0 -738 0 -265 262 c-146 144
-425 421 -621 615 l-355 354 -608 -615z m644 -747 c17 -28 82 -101 144 -162
136 -135 150 -158 151 -252 0 -82 -24 -131 -99 -205 l-46 -44 -22 21 c-20 20
-20 24 -7 40 20 24 39 69 39 93 0 13 7 20 20 20 30 0 53 43 46 83 -10 54 -48
82 -110 82 -45 -1 -52 2 -54 20 -2 33 -57 75 -98 75 -42 0 -94 -45 -94 -80 0
-19 -4 -21 -25 -16 -37 9 -102 -11 -120 -37 -30 -43 -10 -127 32 -127 8 0 13
-12 13 -34 0 -19 10 -49 24 -69 24 -35 24 -36 5 -53 -18 -16 -21 -14 -66 36
-70 76 -93 123 -93 189 1 86 26 129 162 269 68 70 132 144 143 165 11 20 20
37 21 37 1 0 16 -23 34 -51z m20 -311 c12 -23 13 -31 3 -45 -7 -10 -22 -35
-34 -57 l-21 -39 -29 51 c-32 56 -35 73 -18 103 16 31 79 23 99 -13z m-134
-93 c42 -44 62 -105 46 -139 -15 -33 -66 -44 -93 -20 -23 21 -25 76 -4 94 28
23 16 32 -35 25 -47 -7 -50 -6 -50 16 0 34 28 59 68 59 27 0 42 -8 68 -35z
m284 21 c6 -8 10 -25 8 -38 -2 -18 -11 -24 -40 -29 -23 -3 -39 -2 -42 5 -2 6
-5 3 -5 -6 -1 -9 4 -20 9 -23 18 -11 11 -71 -10 -90 -28 -25 -94 -9 -98 24 -6
38 26 107 64 141 38 33 93 41 114 16z m-584 -185 c29 -13 74 -46 107 -79 l56
-57 -10 -42 -11 -42 -32 34 c-59 62 -133 73 -187 28 -27 -23 -41 -27 -78 -25
-25 2 -58 -1 -73 -7 -33 -12 -70 -69 -62 -93 5 -15 -1 -18 -41 -18 -80 0 -135
-42 -135 -102 0 -32 -3 -38 -20 -38 -48 0 -97 -38 -133 -102 -34 -60 -109
-141 -187 -199 -46 -35 -33 -46 24 -20 60 26 160 122 198 189 38 67 69 90 129
98 58 8 68 18 43 45 -14 16 -15 23 -6 44 21 45 80 54 202 29 l35 -7 -32 35
c-40 41 -41 60 -7 87 38 30 74 26 133 -14 28 -19 53 -35 56 -35 3 0 -1 13 -10
30 -22 42 -19 69 10 82 60 27 136 -46 180 -174 39 -115 76 -185 126 -242 54
-62 93 -80 130 -60 69 35 145 151 215 329 46 114 118 175 173 145 26 -14 27
-46 1 -88 l-20 -33 27 16 c16 9 43 27 62 40 37 27 92 33 108 13 26 -34 23 -50
-17 -90 l-40 -41 32 7 c60 12 156 19 182 12 14 -3 33 -18 42 -32 16 -24 16
-27 -4 -54 -23 -31 -16 -40 34 -40 56 0 102 -30 135 -88 55 -97 165 -201 233
-218 40 -10 32 11 -17 45 -65 44 -134 118 -170 181 -39 69 -70 97 -118 110
-33 9 -39 15 -39 38 0 60 -60 102 -145 102 -43 0 -45 1 -45 29 0 17 -10 42
-24 58 -22 25 -31 28 -87 28 -55 0 -66 3 -90 28 -49 48 -149 28 -192 -39 -12
-19 -25 -34 -28 -34 -4 0 -9 21 -13 47 -6 46 -5 48 45 99 68 68 132 102 208
110 170 18 347 -73 466 -240 24 -34 85 -138 135 -230 108 -200 155 -272 210
-318 120 -103 310 -59 310 73 0 39 -33 84 -68 94 -22 6 -23 5 -16 -32 18 -85
-7 -136 -69 -146 -110 -16 -183 89 -127 181 57 94 245 96 323 3 78 -93 45
-226 -69 -281 -130 -64 -281 -18 -529 160 -214 153 -427 250 -550 250 -70 0
-157 -21 -217 -51 -61 -31 -144 -114 -173 -173 -27 -56 -55 -169 -55 -228 l0
-38 -45 0 -45 0 0 38 c0 51 -36 177 -67 235 -37 66 -121 142 -200 180 -63 30
-76 32 -168 31 -69 0 -115 -6 -150 -18 -112 -40 -240 -109 -391 -211 -270
-183 -387 -228 -505 -195 -126 35 -186 159 -129 270 59 115 247 137 335 38 53
-58 46 -127 -18 -167 -48 -29 -108 -28 -144 3 -26 23 -28 29 -26 90 l2 66 -29
-15 c-37 -19 -50 -43 -50 -95 0 -53 22 -84 71 -104 73 -29 165 -15 227 35 48
39 125 154 206 307 97 184 153 266 229 339 71 68 134 108 215 134 76 25 187
21 258 -10z m426 -51 c48 -14 111 -85 128 -145 19 -68 8 -149 -32 -236 -38
-80 -119 -179 -148 -179 -43 0 -131 129 -164 239 -34 117 -16 210 56 277 52
49 97 61 160 44z m-477 -475 c38 -15 55 -46 55 -97 0 -41 -62 -104 -113 -113
-106 -20 -205 91 -153 171 34 50 138 70 211 39z m1017 5 c76 -22 101 -101 51
-161 -89 -105 -253 -60 -253 70 0 56 6 66 50 85 41 18 100 20 152 6z m1208
-825 c10 -12 11 -100 5 -403 -3 -213 -11 -404 -16 -424 -7 -27 -25 -50 -72
-88 -34 -29 -73 -61 -85 -72 -13 -11 -26 -18 -28 -16 -2 2 1 45 7 95 13 115 8
738 -6 752 -5 5 -38 11 -73 12 -34 1 -61 6 -60 11 2 5 59 40 128 78 128 71
176 84 200 55z m-3832 -74 c3 -33 -4 -43 -125 -161 -70 -70 -161 -161 -201
-202 l-73 -76 79 -98 c92 -115 180 -201 213 -208 13 -3 40 -7 59 -8 35 -3 35
-3 -79 -90 -63 -49 -120 -88 -126 -88 -19 0 -111 105 -200 228 -44 61 -82 111
-85 111 -6 1 -71 -101 -94 -146 -9 -18 -16 -45 -16 -60 0 -46 -13 -54 -96 -64
-43 -6 -124 -24 -179 -40 -155 -47 -144 -46 -115 -14 14 15 75 71 135 125 61
54 148 139 194 189 98 108 99 94 -9 221 -151 178 -203 220 -276 220 -48 0 -37
13 66 79 163 105 175 105 257 -7 124 -170 187 -251 194 -247 4 3 28 36 54 73
31 47 48 83 52 113 3 24 10 49 15 56 5 6 42 24 81 39 40 15 104 43 142 61 43
20 82 33 100 31 26 -3 30 -7 33 -37z m2613 7 c9 -7 37 -62 64 -123 83 -191
243 -497 298 -570 56 -75 106 -115 143 -115 13 0 24 -4 24 -8 0 -14 -199 -123
-234 -129 -32 -5 -36 -2 -93 78 -33 46 -73 108 -87 138 l-27 53 -202 -7 c-111
-4 -206 -11 -212 -17 -5 -5 -10 -38 -10 -73 l0 -64 -75 -20 c-41 -12 -111 -34
-154 -51 -43 -17 -84 -29 -89 -27 -6 2 18 34 52 72 52 58 79 102 161 269 117
239 200 435 207 488 6 37 6 38 107 77 117 47 108 45 127 29z m794 -213 l-6
-85 106 0 c58 0 105 -4 105 -9 0 -14 -151 -111 -182 -118 l-28 -5 0 -147 c0
-80 3 -156 6 -169 8 -27 46 -39 79 -24 19 9 24 8 28 -8 7 -27 -14 -52 -85 -98
-86 -56 -121 -67 -158 -52 -55 23 -64 62 -70 289 l-5 204 -90 -2 -90 -2 40 41
c40 42 102 80 128 80 9 0 16 15 20 41 3 22 14 50 24 61 18 21 146 86 171 87
11 1 12 -17 7 -84z m-2924 -78 c100 -67 361 -459 345 -518 -6 -23 -125 -123
-142 -120 -5 0 -13 13 -18 29 -15 45 -70 125 -115 165 -58 52 -122 79 -207 84
-64 5 -72 3 -100 -20 l-29 -25 29 -31 c44 -46 83 -55 208 -47 68 5 108 3 108
-3 0 -14 -135 -101 -199 -127 -110 -46 -252 -22 -310 52 -19 24 -22 38 -19 80
5 59 24 88 93 139 69 52 141 82 230 97 l75 13 -22 32 c-35 49 -92 76 -173 83
l-70 5 53 38 c132 97 200 116 263 74z m593 13 c40 -15 58 -64 64 -167 3 -51 8
-93 11 -93 4 0 47 41 96 91 108 108 194 169 240 169 96 0 146 -127 161 -415 6
-106 5 -122 -10 -134 -23 -19 -189 -121 -193 -118 -1 2 5 36 14 77 25 122 2
242 -60 308 -71 76 -138 29 -278 -196 -35 -56 -84 -124 -109 -150 l-45 -47 -6
220 c-7 235 -10 257 -43 293 -19 22 -26 23 -83 17 -35 -4 -63 -5 -63 -2 0 8
142 102 195 131 54 28 71 31 109 16z m3243 -10 c33 -20 160 -173 233 -280 56
-82 121 -220 112 -236 -4 -7 -41 -40 -82 -73 -72 -58 -75 -59 -84 -38 -57 143
-114 210 -210 246 -70 26 -156 28 -197 4 -38 -22 -37 -34 6 -71 44 -39 82 -46
206 -37 56 4 99 3 99 -2 0 -14 -150 -109 -210 -133 -104 -41 -236 -18 -295 52
-31 37 -33 99 -6 144 46 76 190 158 311 177 45 7 70 15 70 23 0 23 -68 83
-107 93 -21 6 -65 11 -98 11 l-60 0 55 40 c73 53 167 100 199 100 14 0 40 -9
58 -20z m852 1 c41 -21 65 -45 59 -60 -1 -5 -31 -32 -66 -59 l-62 -50 -34 34
c-28 28 -41 34 -77 34 -91 0 -126 -50 -59 -82 19 -9 80 -27 135 -38 165 -35
235 -81 235 -154 0 -93 -146 -223 -295 -262 -109 -30 -232 -3 -280 60 -44 58
-34 78 74 149 l54 36 28 -39 c33 -45 83 -70 141 -70 52 0 78 15 78 45 0 33
-39 61 -119 84 -36 11 -98 29 -138 41 -168 49 -163 168 13 288 91 62 236 82
313 43z m-3084 -1228 c24 -181 109 -318 233 -379 51 -26 67 -28 162 -28 97 0
111 2 179 32 77 34 242 140 347 223 192 152 354 194 484 123 139 -76 131 -237
-15 -305 -99 -46 -226 -3 -256 88 -9 27 -7 40 8 70 21 45 53 63 110 63 30 0
50 -7 72 -26 28 -23 31 -32 31 -80 0 -58 6 -64 40 -36 30 25 32 90 4 129 -46
63 -149 82 -231 42 -73 -35 -124 -104 -217 -295 -48 -97 -110 -210 -138 -250
-64 -94 -157 -181 -233 -219 -55 -27 -69 -30 -160 -30 -92 0 -104 2 -147 28
-65 39 -118 105 -111 140 7 33 8 33 54 1 21 -14 55 -28 76 -31 32 -4 45 0 71
22 18 15 32 33 32 39 0 10 18 13 61 12 57 -1 62 1 91 33 19 21 28 40 25 52 -5
17 1 19 43 19 41 0 54 5 84 34 25 23 36 42 36 62 0 25 7 33 43 49 32 16 49 32
71 75 16 30 65 91 109 137 44 46 78 86 74 89 -21 22 -158 -99 -217 -192 -39
-62 -79 -94 -118 -94 -28 0 -33 -10 -15 -36 14 -22 14 -26 -1 -49 -23 -35 -60
-41 -136 -22 -85 22 -87 22 -51 -12 37 -35 41 -73 9 -95 -35 -24 -60 -19 -122
24 -31 22 -59 40 -62 40 -3 0 4 -15 15 -34 25 -40 27 -79 5 -100 -23 -24 -49
-19 -89 16 -39 34 -58 66 -100 173 -15 39 -43 93 -62 122 -37 57 -115 133
-136 133 -24 0 -99 -73 -138 -133 -21 -32 -52 -96 -70 -142 -31 -82 -80 -154
-121 -176 -14 -8 -28 -7 -49 1 -36 15 -39 57 -8 102 31 43 18 44 -39 3 -61
-43 -111 -55 -135 -30 -26 26 -21 60 14 90 37 30 32 42 -11 27 -16 -6 -56 -14
-88 -17 -49 -6 -61 -4 -84 15 -29 22 -36 58 -16 78 9 9 7 13 -8 18 -75 27 -84
35 -137 116 -29 46 -71 98 -91 116 -43 37 -102 69 -112 59 -3 -3 27 -39 68
-79 46 -45 87 -98 109 -138 27 -51 43 -69 75 -85 22 -11 39 -25 37 -32 -2 -6
3 -27 11 -47 19 -46 71 -70 133 -63 41 4 42 4 37 -23 -4 -19 1 -35 19 -56 23
-26 31 -29 86 -29 58 0 62 -2 81 -32 34 -56 111 -54 181 4 l28 24 9 -33 c8
-29 5 -38 -26 -75 -21 -27 -58 -55 -97 -74 -59 -29 -70 -31 -152 -28 -112 5
-177 35 -274 126 -89 84 -144 169 -241 372 -96 200 -138 259 -209 295 -81 40
-170 34 -219 -15 -51 -52 -48 -133 6 -157 24 -11 24 -11 24 42 0 73 20 97 86
103 160 16 197 -150 49 -218 -100 -46 -237 0 -275 91 -19 46 -8 123 23 164 43
56 107 81 208 81 81 0 90 -2 170 -42 46 -24 138 -83 204 -133 144 -108 227
-159 332 -203 70 -29 88 -32 178 -32 120 0 171 20 250 100 74 73 134 219 135
323 0 31 1 32 44 32 l45 0 6 -47z m-418 -153 c86 -52 93 -171 12 -199 -44 -15
-133 -14 -174 3 -43 18 -59 48 -52 98 13 95 131 149 214 98z m943 5 c69 -36
95 -128 48 -173 -52 -48 -205 -56 -240 -12 -22 27 -24 90 -3 130 30 59 132 88
195 55z m-516 -205 c99 -106 144 -276 97 -367 -69 -136 -243 -137 -312 -1 -34
66 -28 141 19 241 39 83 112 177 137 177 7 0 34 -23 59 -50z m-225 -488 c-11
-15 -19 -40 -19 -63 0 -30 -4 -39 -17 -39 -28 0 -53 -31 -53 -65 0 -58 64
-104 126 -92 21 4 27 -1 39 -29 19 -46 56 -68 102 -61 43 7 83 42 83 73 0 20
4 21 45 17 41 -5 47 -3 80 30 23 23 35 44 35 63 0 32 -25 64 -50 64 -13 0 -19
11 -23 45 -2 25 -12 54 -21 64 -15 16 -15 20 -2 30 24 20 140 -99 156 -159 26
-96 -2 -151 -152 -307 -64 -66 -126 -140 -138 -162 -11 -23 -22 -41 -24 -41
-2 0 -16 21 -32 48 -15 26 -76 95 -136 154 -123 120 -150 167 -151 257 0 69
10 91 81 163 46 48 58 55 73 45 17 -10 17 -12 -2 -35z m294 -31 c21 -36 22
-61 2 -87 -22 -30 -18 -35 28 -32 37 3 42 0 45 -19 2 -15 -5 -27 -24 -39 -25
-17 -28 -17 -63 2 -25 13 -44 36 -63 73 -37 73 -37 98 2 106 16 4 32 11 35 16
10 15 20 10 38 -20z m-188 5 c22 -9 35 -22 35 -33 0 -30 -47 -119 -71 -137
-36 -25 -85 -21 -105 9 -22 34 -10 48 37 41 37 -6 52 5 29 19 -5 3 -10 24 -10
45 0 29 6 43 22 54 27 19 21 19 63 2z m90 -158 c32 -63 30 -97 -7 -118 -33
-18 -58 -7 -73 34 -7 22 -4 37 20 81 17 30 31 55 32 55 1 0 14 -23 28 -52z"/>
<path d="M7128 6504 c-14 -29 -2 -57 26 -62 42 -8 64 58 27 78 -30 15 -40 12
-53 -16z"/>
<path d="M8178 6519 c-22 -12 -23 -52 -4 -69 8 -6 25 -10 38 -8 30 4 38 56 12
75 -21 15 -24 15 -46 2z"/>
<path d="M8111 5409 c-37 -85 -128 -318 -126 -321 2 -2 71 -2 154 0 l151 3
-39 77 c-21 42 -55 115 -76 162 -45 103 -51 110 -64 79z"/>
<path d="M7200 3870 c-14 -27 -5 -57 21 -65 29 -10 51 13 47 49 -2 25 -8 32
-30 34 -19 2 -30 -3 -38 -18z"/>
<path d="M8158 3879 c-39 -22 -9 -86 35 -75 23 5 27 12 27 40 0 43 -25 57 -62
35z"/>
</g>
</svg>
